<?xml version="1.0" standalone="no"?>
<!DOCTYPE svg PUBLIC "-//W3C//DTD SVG 20010904//EN"
 "http://www.w3.org/TR/2001/REC-SVG-20010904/DTD/svg10.dtd">
<svg version="1.0" xmlns="http://www.w3.org/2000/svg"
 width="700.000000pt" height="700.000000pt" viewBox="0 0 700.000000 700.000000"
 preserveAspectRatio="xMidYMid meet">
<metadata>
Created by potrace 1.14, written by Peter Selinger 2001-2017
</metadata>
<g transform="translate(0.000000,700.000000) scale(0.100000,-0.100000)"
fill="#000000" stroke="none">
<path d="M2559 6406 c-2 -2 -31 -7 -63 -10 -488 -49 -994 -315 -1336 -701
-218 -246 -387 -565 -466 -880 -3 -11 -6 -24 -8 -30 -39 -151 -54 -300 -51
-515 3 -218 6 -242 36 -390 11 -52 22 -106 25 -120 6 -32 71 -228 84 -255 5
-11 27 -59 49 -107 153 -338 423 -653 741 -865 95 -64 171 -108 213 -124 19
-8 26 -16 23 -26 -4 -8 -46 -83 -94 -167 -49 -83 -169 -290 -267 -461 -98
-170 -185 -321 -194 -335 -8 -14 -25 -43 -37 -65 -12 -22 -69 -121 -127 -220
-76 -129 -101 -181 -91 -185 10 -4 3174 -5 3247 -1 15 1 15 5 -7 39 -23 36
-255 436 -311 536 -15 28 -41 72 -57 99 -16 27 -27 52 -24 54 3 3 572 5 1265
5 l1261 0 0 1504 0 1504 -770 0 -770 0 -5 23 c-3 12 -10 44 -15 71 -33 153
-130 399 -221 558 -47 81 -162 250 -199 290 -8 9 -42 47 -75 85 -197 225 -486
425 -788 547 -83 33 -242 83 -297 92 -14 3 -41 9 -60 14 -19 4 -60 12 -90 15
-30 4 -64 10 -75 12 -23 6 -440 14 -446 9z"/>
</g>
</svg>
